# xmcd
#
# Track frame offsets: 
#        182
#        16207
#        42327
#
# Disc length: 909 seconds
#
# Revision: 1
# Processed by: cddbd v1.5.2PL0 Copyright (c) Steve Scherf et al.
# Submitted via: ExactAudioCopy v1.0b3
#
DISCID=1a038b03
DTITLE=H2Blond - Bodytalk
DYEAR=1994
DGENRE=Eurodance
TTITLE0=Bodytalk (Radio Edit)
TTITLE1=Bodytalk (Dance Edit)
TTITLE2=Bodytalk (Special Edit)
EXTD=
EXTT0=
EXTT1=
EXTT2=
PLAYORDER=
